<svg width="100" height="100" viewBox="0 0 100 100" fill="none" xmlns="http://www.w3.org/2000/svg">
<path d="M41.1067 39.1872L29.8526 45.7419L28.0645 36.2089L38.9221 27.4048L41.1067 39.1872Z" fill="#00AEEF"/>
<path d="M62.6213 26.0137L51.7648 32.237L49.25 17.8053L60.1053 9L62.6213 26.0137Z" fill="#00AEEF"/>
<path d="M76.7895 38.4602L65.138 42.4305L62.6221 26.0797L73.7428 19.9897L76.7895 38.4602Z" fill="#00AEEF"/>
<path d="M91.4194 55.4065L79.3031 56.5318L76.6562 37.5978L88.3726 34.8188L91.4194 55.4065Z" fill="#00AEEF"/>
<path d="M68.1842 58.187L56.4654 60.5036L54.2148 46.3373L65.5361 41.5708L68.1842 58.187Z" fill="#00AEEF"/>
<path d="M82.5482 75L70.4355 74.6697L67.9844 58.0535L79.6995 56.0684L82.5482 75Z" fill="#00AEEF"/>
<path d="M54.2802 46.4667L43.0922 50.9678L41.041 39.0545L51.9636 32.1011L54.2802 46.4667Z" fill="#00AEEF"/>
<path d="M45.3439 63.0155L33.6924 65.1363L31.7061 55.6033L43.1594 51.167L45.3439 63.0155Z" fill="#00AEEF"/>
<path d="M59.0466 74.8667H47.263L45.1445 62.8189L56.6639 60.5684L59.0466 74.8667Z" fill="#00AEEF"/>
<path d="M35.6785 74.7348L23.6968 74.2051L21.9746 66.6596L33.6261 64.9375L35.6785 74.7348Z" fill="#00AEEF"/>
<path d="M32.0357 55.6036L20.6496 59.6412L18.7305 51.697L29.9184 45.8052L32.0357 55.6036Z" fill="#00AEEF"/>
<path d="M22.2404 66.9896L10.4567 67.7173L9 62.0249L20.5843 59.575L22.2404 66.9896Z" fill="#00AEEF"/>
</svg>
